<svg width="906" height="159" xmlns="http://www.w3.org/2000/svg" xmlns:xlink="http://www.w3.org/1999/xlink" overflow="hidden"><defs><clipPath id="clip0"><path d="M108 336 1014 336 1014 495 108 495Z" fill-rule="evenodd" clip-rule="evenodd"/></clipPath></defs><g clip-path="url(#clip0)" transform="translate(-108 -336)"><rect x="114.5" y="337.5" width="217" height="37" stroke="#FFFFFF" stroke-miterlimit="8"/><text fill="#FFFFFF" font-family="Calibri,Calibri_MSFontService,sans-serif" font-weight="700" font-size="19" transform="translate(152.799 362)">Concerned <tspan x="87.1667" y="0">Citizen</tspan></text><rect x="340.5" y="337.5" width="217" height="37" stroke="#FFFFFF" stroke-miterlimit="8"/><text fill="#FFFFFF" font-family="Calibri,Calibri_MSFontService,sans-serif" font-weight="700" font-size="19" transform="translate(365.917 362)">Connected <tspan x="86.7733" y="0">Influencer</tspan></text><rect x="566.5" y="337.5" width="217" height="37" stroke="#FFFFFF" stroke-miterlimit="8"/><text fill="#FFFFFF" font-family="Calibri,Calibri_MSFontService,sans-serif" font-weight="700" font-size="19" transform="translate(622.329 362)">Fact <tspan x="35.6533" y="0">Gatherer</tspan></text><rect x="792.5" y="337.5" width="217" height="37" stroke="#FFFFFF" stroke-miterlimit="8"/><text fill="#FFFFFF" font-family="Calibri,Calibri_MSFontService,sans-serif" font-weight="700" font-size="19" transform="translate(836.897 362)">Involved <tspan x="70.22" y="0">Analyst</tspan></text><path d="M114.5 411.251 986 411.251 986 399.5 1009.5 423 986 446.5 986 434.751 114.5 434.751Z" stroke="#FFFFFF" stroke-miterlimit="8" fill-rule="evenodd"/><text fill="#FFFFFF" font-family="Calibri,Calibri_MSFontService,sans-serif" font-weight="400" font-size="24" transform="translate(123.435 472)">Visual data<tspan x="785.211" y="0">Raw data</tspan></text></g></svg>