<svg width="905" height="350" xmlns="http://www.w3.org/2000/svg" xmlns:xlink="http://www.w3.org/1999/xlink" overflow="hidden"><defs><clipPath id="clip0"><path d="M136 115 1041 115 1041 465 136 465Z" fill-rule="evenodd" clip-rule="evenodd"/></clipPath></defs><g clip-path="url(#clip0)" transform="translate(-136 -115)"><rect x="141.5" y="116.5" width="217" height="228" stroke="#000000" stroke-miterlimit="8" fill="none"/><text font-family="Calibri,Calibri_MSFontService,sans-serif" font-weight="700" font-size="19" transform="translate(180.102 138)">Concerned Citizen<tspan font-weight="400" font-size="15" x="-24.5933" y="42">“Tell me what the goals are and </tspan><tspan font-weight="400" font-size="15" x="-26.0067" y="59">what is being done about them”</tspan><tspan font-weight="400" font-size="15" x="-12.84" y="182">They use</tspan><tspan font-weight="400" font-size="15" x="43.3267" y="182">the</tspan><tspan font-weight="400" font-size="15" x="66.4933" y="182">website</tspan><tspan font-weight="400" font-size="15" x="116.493" y="182">out</tspan><tspan font-weight="400" font-size="15" x="139.993" y="182">of </tspan><tspan font-weight="400" font-size="15" x="19.16" y="200">personal interest</tspan></text><rect x="367.5" y="116.5" width="218" height="228" stroke="#000000" stroke-miterlimit="8" fill="none"/><text font-family="Calibri,Calibri_MSFontService,sans-serif" font-weight="700" font-size="19" transform="translate(393.22 138)">Connected Influencer<tspan font-weight="400" font-size="15" x="-14.08" y="42">“Give me a tool that will support </tspan><tspan font-weight="400" font-size="15" x="-0.493317" y="59">my ambitions and give me a </tspan><tspan font-weight="400" font-size="15" x="42.92" y="77">louder voice”</tspan><tspan font-weight="400" font-size="15" x="-9.74667" y="182">They use</tspan><tspan font-weight="400" font-size="15" x="46.42" y="182">the</tspan><tspan font-weight="400" font-size="15" x="69.5867" y="182">website</tspan><tspan font-weight="400" font-size="15" x="119.587" y="182">as it adds </tspan><tspan font-weight="400" font-size="15" x="-15.9133" y="200">credibility to what they are doing</tspan></text><rect x="593.5" y="116.5" width="218" height="228" stroke="#000000" stroke-miterlimit="8" fill="none"/><text font-family="Calibri,Calibri_MSFontService,sans-serif" font-weight="700" font-size="19" transform="translate(649.635 138)">Fact Gatherer<tspan font-weight="400" font-size="15" x="-40.5333" y="42">“I just need to quickly see what </tspan><tspan font-weight="400" font-size="15" x="-28.78" y="59">progress is being made and </tspan><tspan font-weight="400" font-size="15" x="4.96667" y="77">check the facts”</tspan><tspan font-weight="400" font-size="15" x="-36.7" y="182">They use</tspan><tspan font-weight="400" font-size="15" x="19.4667" y="182">the</tspan><tspan font-weight="400" font-size="15" x="42.6333" y="182">website</tspan><tspan font-weight="400" font-size="15" x="92.6333" y="182">because </tspan><tspan font-weight="400" font-size="15" x="-37.1133" y="200">they need to check something</tspan></text><rect x="820.5" y="116.5" width="217" height="228" stroke="#000000" stroke-miterlimit="8" fill="none"/><text font-family="Calibri,Calibri_MSFontService,sans-serif" font-weight="700" font-size="19" transform="translate(864.2 138)">Involved Analyst<tspan font-weight="400" font-size="15" x="-29.8867" y="42">“I just want the data so I can do </tspan><tspan font-weight="400" font-size="15" x="-0.306702" y="59">my own thing with it”</tspan><tspan font-weight="400" font-size="15" x="-25.14" y="182">They use</tspan><tspan font-weight="400" font-size="15" x="31.0267" y="182">the</tspan><tspan font-weight="400" font-size="15" x="54.1933" y="182">website</tspan><tspan font-weight="400" font-size="15" x="104.193" y="182">because </tspan><tspan font-weight="400" font-size="15" x="-24.3867" y="200">they need to analyse the </tspan><tspan font-weight="400" font-size="15" x="125.78" y="200">dat</tspan><tspan font-weight="400" font-size="15" x="145.28" y="200">a</tspan></text><path d="M141.5 381.25 1014 381.25 1014 369.5 1037.5 393.001 1014 416.5 1014 404.75 141.5 404.75Z" stroke="#F4B183" stroke-miterlimit="8" fill="#F4B183" fill-rule="evenodd"/><text font-family="Calibri,Calibri_MSFontService,sans-serif" font-weight="400" font-size="24" transform="translate(150.738 443)">Visual data<tspan x="785.211" y="0">Ra</tspan><tspan x="809.544" y="0">w</tspan><tspan x="832.211" y="0">data</tspan></text></g></svg>
