<svg width="905" height="159" xmlns="http://www.w3.org/2000/svg" xmlns:xlink="http://www.w3.org/1999/xlink" overflow="hidden"><defs><clipPath id="clip0"><path d="M136 306 1041 306 1041 465 136 465Z" fill-rule="evenodd" clip-rule="evenodd"/></clipPath></defs><g clip-path="url(#clip0)" transform="translate(-136 -306)"><rect x="141.5" y="307.5" width="217" height="37" stroke="#000000" stroke-miterlimit="8" fill="none"/><text font-family="Calibri,Calibri_MSFontService,sans-serif" font-weight="700" font-size="19" transform="translate(180.101 332)">Concerned <tspan x="87.1667" y="0">Citizen</tspan></text><rect x="367.5" y="307.5" width="218" height="37" stroke="#000000" stroke-miterlimit="8" fill="none"/><text font-family="Calibri,Calibri_MSFontService,sans-serif" font-weight="700" font-size="19" transform="translate(393.22 332)">Connected <tspan x="86.7733" y="0">Influencer</tspan></text><rect x="593.5" y="307.5" width="218" height="37" stroke="#000000" stroke-miterlimit="8" fill="none"/><text font-family="Calibri,Calibri_MSFontService,sans-serif" font-weight="700" font-size="19" transform="translate(649.631 332)">Fact <tspan x="35.6533" y="0">Gatherer</tspan></text><rect x="820.5" y="307.5" width="217" height="37" stroke="#000000" stroke-miterlimit="8" fill="none"/><text font-family="Calibri,Calibri_MSFontService,sans-serif" font-weight="700" font-size="19" transform="translate(864.2 332)">Involved <tspan x="70.22" y="0">Analyst</tspan></text><path d="M141.5 381.25 1014 381.25 1014 369.5 1037.5 393.001 1014 416.5 1014 404.75 141.5 404.75Z" stroke="#F4B183" stroke-miterlimit="8" fill="#F4B183" fill-rule="evenodd"/><text font-family="Calibri,Calibri_MSFontService,sans-serif" font-weight="400" font-size="24" transform="translate(150.738 443)">Visual data<tspan x="785.211" y="0">Raw data</tspan></text></g></svg>